<svg xmlns="http://www.w3.org/2000/svg" xmlns:xlink="http://www.w3.org/1999/xlink" width="360" height="160" viewBox="0 0 360 160">
    <defs>
        <path id="lg3gx3a62a" d="M0 0L6.448 0 6.448 59.8 0 59.8z"/>
        <path id="87vs2e82rc" d="M0 0L18.828 0 18.828 5.829 0 5.829z"/>
        <path id="sa68emuk1e" d="M39.25 15.864L3.94 76.814c-.51.88-.972 1.771-1.389 2.67-12.494 26.94 23.865 50.214 44.48 28.795l7.532-7.827c6.684-6.946 17.825-6.946 24.51 0l8.806 9.15c16.926 17.587 47.78 5.141 46.05-19.167-.325-4.578-1.68-9.214-4.234-13.621l-35.308-60.95C88.262 5.288 77.54 0 66.819 0S45.377 5.288 39.25 15.864z"/>
        <path id="s571z1m3gg" d="M39.25 15.864L3.94 76.814c-.51.88-.972 1.771-1.389 2.67-12.494 26.94 23.865 50.214 44.48 28.795l7.532-7.827c6.684-6.946 17.825-6.946 24.51 0l8.806 9.15c16.926 17.587 47.78 5.141 46.05-19.167-.325-4.578-1.68-9.214-4.234-13.621l-35.308-60.95C88.262 5.288 77.54 0 66.819 0S45.377 5.288 39.25 15.864z"/>
        <path id="gij5g97q6i" d="M3.941 76.814c-.51.88-.972 1.771-1.389 2.67-12.494 26.94 23.865 50.214 44.48 28.795l7.532-7.827c6.684-6.946 17.825-6.946 24.51 0l8.806 9.15c16.926 17.587 47.78 5.141 46.05-19.167-.325-4.578-1.68-9.214-4.234-13.621l-35.308-60.95C88.262 5.288 77.54 0 66.819 0S45.377 5.288 39.25 15.864L3.941 76.814z"/>
    </defs>
    <g fill="none" fill-rule="evenodd">
        <g>
            <g>
                <path fill="#0045E5" d="M0 0h360v120c0 22.091-17.909 40-40 40H40c-22.091 0-40-17.909-40-40V0z" transform="translate(0.000000, -59.000000) translate(0.000000, 59.000000)"/>
                <g>
                    <path fill="#76D8FF" d="M87.88 116.746l-8.806-9.15c-6.684-6.945-17.826-6.945-24.51 0l-7.532 7.827c-20.615 21.418-56.973-1.856-44.48-28.796.416-.897.88-1.788 1.39-2.67l35.308-60.95c12.253-21.15 42.885-21.15 55.138 0l35.308 60.95c2.553 4.407 3.91 9.044 4.234 13.622 1.73 24.309-29.124 36.753-46.05 19.167" transform="translate(0.000000, -59.000000) translate(0.000000, 59.000000) translate(113.000000, 18.000000)"/>
                    <g>
                        <g transform="translate(0.000000, -59.000000) translate(0.000000, 59.000000) translate(113.000000, 18.000000) translate(64.684932, 0.000000)">
                            <mask id="gm6ajxxc2b" fill="#fff">
                                <use xlink:href="#lg3gx3a62a"/>
                            </mask>
                            <path fill="#FF8402" d="M5.336 0H1.112C.498 0 0 .496 0 1.108v57.584c0 .612.498 1.108 1.112 1.108h4.224c.614 0 1.112-.496 1.112-1.108V1.108C6.448.496 5.95 0 5.336 0" mask="url(#gm6ajxxc2b)"/>
                        </g>
                        <g transform="translate(0.000000, -59.000000) translate(0.000000, 59.000000) translate(113.000000, 18.000000) translate(64.684932, 0.000000) translate(2.232999, 0.000000)">
                            <mask id="dvchjnvesd" fill="#fff">
                                <use xlink:href="#87vs2e82rc"/>
                            </mask>
                            <path fill="#FF8402" d="M17.898 5.829H.928C.417 5.829 0 5.415 0 4.903V.925C0 .415.416 0 .929 0h16.969c.513 0 .93.415.93.925v3.978c0 .512-.417.926-.93.926" mask="url(#dvchjnvesd)"/>
                        </g>
                        <path fill="#FF8402" d="M16.715 22.807H3.502c-.7 0-1.27-.566-1.27-1.265v-3.348c0-.699.57-1.266 1.27-1.266h13.213c.701 0 1.27.567 1.27 1.266v3.348c0 .699-.569 1.265-1.27 1.265" transform="translate(0.000000, -59.000000) translate(0.000000, 59.000000) translate(113.000000, 18.000000) translate(64.684932, 0.000000)"/>
                    </g>
                    <g transform="translate(0.000000, -59.000000) translate(0.000000, 59.000000) translate(113.000000, 18.000000) translate(0.000000, 7.143784)">
                        <mask id="fnhzpcc0wf" fill="#fff">
                            <use xlink:href="#sa68emuk1e"/>
                        </mask>
                        <path fill="#FFC38A" d="M30.703 119.605s-2.57-29.206 2.345-36.96c4.916-7.753 12.696-11.618 12.696-11.618l5.446-1.82 17.245-4.072s2.921-.767 7.261 2.52c4.34 3.289 15.3 10.238 15.819 11.71.518 1.472-.052 4.573-2.62 5.607-2.566 1.033-5.03-.129-5.03-.129s1.945 2.325 1.88 3.49c-.065 1.162-.38 3.346-3.075 3.998-2.694.653-3.862.123-4.64 0-.778-.122-3.76 16.677-4.15 16.936-.388.258-3.084 9.433-11.202 12.535-8.116 3.102-18.36 1.809-18.36 1.809l-13.615-4.006z" mask="url(#fnhzpcc0wf)"/>
                    </g>
                    <g>
                        <path fill="#FF8402" d="M21.977 0c12.139 0 21.978 9.807 21.978 21.904 0 12.099-9.839 21.905-21.978 21.905C9.84 43.809 0 34.003 0 21.904 0 9.807 9.84 0 21.977 0zm.083 7.676c-7.885 0-14.278 6.37-14.278 14.228 0 7.86 6.393 14.23 14.278 14.23 7.885 0 14.277-6.37 14.277-14.23 0-7.858-6.392-14.228-14.277-14.228z" transform="translate(0.000000, -59.000000) translate(0.000000, 59.000000) translate(113.000000, 18.000000) translate(44.940509, 50.374476)"/>
                        <path fill="#FFC38A" d="M8.244 25.505s11.101-3.794 15.25-3.6c4.15.194 11.67 5.652 11.67 5.652s-1.545 3.875-5.31 6.315c-3.765 2.442-15.397.078-15.397.078s-4.218-1.68-6.213-8.445" transform="translate(0.000000, -59.000000) translate(0.000000, 59.000000) translate(113.000000, 18.000000) translate(44.940509, 50.374476)"/>
                    </g>
                    <g>
                        <g transform="translate(0.000000, -59.000000) translate(0.000000, 59.000000) translate(113.000000, 18.000000) translate(0.000000, 7.143784)">
                            <mask id="pbu09njobh" fill="#fff">
                                <use xlink:href="#s571z1m3gg"/>
                            </mask>
                            <path fill="#FFC38A" d="M36.555 84.709s1.513-10.385 21.453-8.43c8.044 0 23.721 1.233 23.721 1.233s4.745.618 3.92 5.757c-.619 3.084-2.062 7.402-10.726 7.812-8.046.412-13.773 1.234-13.773 1.234s1.395 20.148-8.917 25.698c-10.315 5.551-19.184-3.084-19.184-3.084V94.988l3.506-10.28z" mask="url(#pbu09njobh)"/>
                        </g>
                        <g transform="translate(0.000000, -59.000000) translate(0.000000, 59.000000) translate(113.000000, 18.000000) translate(0.000000, 7.143784) translate(0.000000, 0.000000)">
                            <mask id="hrwlptw03j" fill="#fff">
                                <use xlink:href="#gij5g97q6i"/>
                            </mask>
                            <path stroke="#D89C62" stroke-linecap="round" stroke-width=".554" d="M39.626 79.915s3.66-4.179 12.934-3.874c6.803.249 27.035 1.312 27.035 1.312s6.963-.457 6.054 5.916c-.97 3.003-1.107 8.132-14.931 8.076-2.168.172-9.568.97-9.568.97s1.717 18.69-4.622 21.783" mask="url(#hrwlptw03j)"/>
                        </g>
                    </g>
                    <g>
                        <path stroke="#D89C62" stroke-linecap="round" stroke-width=".554" d="M45.915 72.577s-.131 3.748 0 4.653c.13.905 5.933 1.53 8.865-2.327" transform="translate(0.000000, -59.000000) translate(0.000000, 59.000000) translate(113.000000, 18.000000) translate(28.096344, 12.431112)"/>
                        <path fill="#FFF800" d="M70.524 5.992l.07-.015c-2.415-.512-4.27-2.443-4.679-4.87L65.728 0l-.174 1.03c-.41 2.429-2.267 4.36-4.684 4.871l-.07.016c2.415.512 4.27 2.443 4.68 4.871l.186 1.107.175-1.03c.409-2.429 2.266-4.361 4.683-4.873M82.567 72.621l.067-.014c-2.35-.499-4.155-2.379-4.554-4.74l-.182-1.077-.168 1.003c-.399 2.362-2.207 4.243-4.558 4.74l-.068.014c2.35.5 4.155 2.379 4.553 4.74l.182 1.078.168-1.003c.399-2.363 2.207-4.243 4.56-4.74M12.71 38.003l.092-.019c-3.157-.67-5.582-3.195-6.118-6.367l-.243-1.447-.227 1.346c-.535 3.175-2.963 5.7-6.124 6.368l-.09.02c3.157.67 5.582 3.194 6.117 6.366l.243 1.448.228-1.347c.535-3.174 2.964-5.7 6.122-6.368" transform="translate(0.000000, -59.000000) translate(0.000000, 59.000000) translate(113.000000, 18.000000) translate(28.096344, 12.431112)"/>
                    </g>
                </g>
            </g>
        </g>
    </g>
</svg>
