<svg xmlns="http://www.w3.org/2000/svg" xmlns:xlink="http://www.w3.org/1999/xlink" width="164" height="156" viewBox="0 0 164 156">
    <defs>
        <path id="0urud6cvaa" d="M0 0.166L163.2 0.166 163.2 144.041 0 144.041z"/>
        <path id="mz3m0v8zbc" d="M0.949 0.416L58.381 0.416 58.381 57.789 0.949 57.789z"/>
        <path id="50ybghes4e" d="M47.802 19.484L4.8 93.705c-.622 1.073-1.185 2.158-1.692 3.251-15.216 32.806 29.065 61.147 54.172 35.066l9.174-9.532c8.14-8.457 21.71-8.457 29.85 0l10.726 11.143c20.01 20.788 56.004 7.116 56.17-20.777v-.39c-.005-.715-.032-1.44-.084-2.174-.397-5.575-2.05-11.221-5.159-16.587l-43.002-74.221C107.495 6.605 94.436.167 81.38.167c-13.057 0-26.114 6.438-33.577 19.317z"/>
    </defs>
    <g fill="none" fill-rule="evenodd">
        <g>
            <g>
                <g>
                    <g transform="translate(-98.000000, -104.000000) translate(98.000000, 104.000000) translate(0.000000, 10.995535)">
                        <mask id="iwzrjp5fab" fill="#fff">
                            <use xlink:href="#0urud6cvaa"/>
                        </mask>
                        <path fill="#E7EAF3" d="M107.03 133.966l-10.725-11.17c-8.141-8.48-21.711-8.48-29.852 0l-9.174 9.553c-25.106 26.148-69.387-2.264-54.17-35.151.506-1.098 1.07-2.184 1.691-3.26l43.002-74.406c14.924-25.821 52.232-25.821 67.153 0l43.004 74.407c3.108 5.379 4.76 11.04 5.156 16.628 2.106 29.674-35.471 44.866-56.086 23.399" mask="url(#iwzrjp5fab)"/>
                    </g>
                    <path fill="#FF8500" d="M62.667 96.675s10.38-7.238 43.296-10.896c-.957 3.983-14.204 15.354-14.204 15.354l-18.347.636-9.744-2.729-1.001-2.365" transform="translate(-98.000000, -104.000000) translate(98.000000, 104.000000)"/>
                    <path fill="#F4B28F" d="M99.817 92.037s2.321-30.7.546-38.204c-1.228-4.503-6.283-15.828-10.653-18.42-6.83-.136-29.638 18.147-29.638 18.147s-4.234 21.421-.82 29.54c.956 2.933 2.459 4.161 2.459 4.161s4.78 3.547 8.467 3.275c.274 1.91-.682 9.55-.682 9.55l27.59-.681 2.731-7.368z" transform="translate(-98.000000, -104.000000) translate(98.000000, 104.000000)"/>
                    <g transform="translate(-98.000000, -104.000000) translate(98.000000, 104.000000) translate(35.221477, 0.000000)">
                        <mask id="9ndp1velad" fill="#fff">
                            <use xlink:href="#mz3m0v8zbc"/>
                        </mask>
                        <path fill="#47DBA5" d="M58.38 29.103c0 15.843-12.856 28.686-28.716 28.686C13.804 57.789.95 44.946.95 29.103.949 13.259 13.805.415 29.664.415c15.86 0 28.717 12.844 28.717 28.688" mask="url(#9ndp1velad)"/>
                    </g>
                    <path fill="#FFF" d="M84.449 21.871l-22.6 22.576c-1.52 1.52-3.984 1.52-5.505 0-1.52-1.518-1.52-3.98 0-5.499l22.6-22.576c1.52-1.52 3.985-1.52 5.505 0 1.52 1.518 1.52 3.98 0 5.5" transform="translate(-98.000000, -104.000000) translate(98.000000, 104.000000)"/>
                    <path fill="#FFF" d="M53.378 42.313l-9.4-9.39c-1.52-1.518-1.52-3.98 0-5.499 1.52-1.518 3.986-1.518 5.504 0l9.4 9.39c1.521 1.52 1.521 3.981 0 5.5-1.519 1.518-3.984 1.518-5.504 0" transform="translate(-98.000000, -104.000000) translate(98.000000, 104.000000)"/>
                    <path fill="#F4B28F" d="M91.759 54.924S67.31 44.28 66.49 44.554c-.82.273-4.235 5.458 0 10.37 2.105 2.622 12.985 9.005 12.985 9.005s-2.059 12.825 4.498 16.646c6.692-1.091 10.38-9.96 10.38-9.96l-2.595-15.691zM53.925 67.75s-5.574-9.188 3.996-11.37c5.383.727 12.667 6.458 14.306 12.644-.273 2.092-.364 4-3.004 5.184.364 1 1.251 4.275-3.836 6.367-1.718.183-8.092-.636-10.642-1.91-2.094-.819-7.65-6.095-.82-10.916" transform="translate(-98.000000, -104.000000) translate(98.000000, 104.000000)"/>
                    <path stroke="#9A643B" stroke-linecap="round" d="M91.759 54.924s-22.72-10.187-25.268-10.37c-.736.733-4.734 4.822 0 10.37 4.735 5.548 12.985 9.005 12.985 9.005s-2.422 13.463 4.953 18.284M69.222 74.208c3.005-1.819 3.28-3.73 2.849-5.718-3.906-10.155-14.15-11.792-14.15-11.792" transform="translate(-98.000000, -104.000000) translate(98.000000, 104.000000)"/>
                    <path stroke="#9A643B" stroke-linecap="round" stroke-linejoin="round" d="M54.563 67.75s14.79 2.635 14.952 8.094c-.292 2.639-1.896 5.147-5.536 4.731-3.021-.32-5.144-.687-5.144-.687" transform="translate(-98.000000, -104.000000) translate(98.000000, 104.000000)"/>
                </g>
                <g transform="translate(-98.000000, -104.000000) translate(98.000000, 104.000000) translate(0.000000, 10.263158)">
                    <mask id="9iuhs03wsf" fill="#fff">
                        <use xlink:href="#50ybghes4e"/>
                    </mask>
                    <path fill="#0045E5" d="M62.667 85.467s25.404 7.388 43.296-10.87c.273 7.332 2.824 60.733 2.824 60.733l-48.063-6.887 1.943-42.976z" mask="url(#9iuhs03wsf)"/>
                </g>
                <g fill="#EEE809">
                    <path d="M.724 8.63S29.376 15.377 44.637.643c.103 2.222.204 4.352.204 4.352S30.785 19.467.551 12.363L.725 8.63" transform="translate(-98.000000, -104.000000) translate(98.000000, 104.000000) translate(61.500000, 94.421053)"/>
                    <path d="M.33 17.157s30.817 8.087 44.784-6.388l.205 4.32S34.336 28.953.147 21.145l.184-3.988" transform="translate(-98.000000, -104.000000) translate(98.000000, 104.000000) translate(61.500000, 94.421053)"/>
                </g>
            </g>
        </g>
    </g>
</svg>
